<svg xmlns="http://www.w3.org/2000/svg" viewBox="0 0 850 450">
  
  <!-- Titre -->
  <text x="425" y="50" font-family="Roboto, Arial, sans-serif" font-size="28" font-weight="500" text-anchor="middle" fill="#212121">
    Tableau des unités de masse
  </text>
  
  <!-- En-têtes du tableau avec espacement -->
  <!-- kg -->
  <rect x="30" y="90" width="100" height="55" fill="#0288D1" rx="8" ry="8"/>
  <text x="80" y="125" font-family="Roboto, Arial, sans-serif" font-size="20" font-weight="500" text-anchor="middle" fill="white">kg</text>
  
  <!-- hg -->
  <rect x="145" y="90" width="100" height="55" fill="#0288D1" rx="8" ry="8"/>
  <text x="195" y="125" font-family="Roboto, Arial, sans-serif" font-size="20" font-weight="500" text-anchor="middle" fill="white">hg</text>
  
  <!-- dag -->
  <rect x="260" y="90" width="100" height="55" fill="#0288D1" rx="8" ry="8"/>
  <text x="310" y="125" font-family="Roboto, Arial, sans-serif" font-size="20" font-weight="500" text-anchor="middle" fill="white">dag</text>
  
  <!-- g (unité de référence) -->
  <rect x="375" y="90" width="100" height="55" fill="#D32F2F" rx="8" ry="8"/>
  <text x="425" y="125" font-family="Roboto, Arial, sans-serif" font-size="20" font-weight="500" text-anchor="middle" fill="white">g</text>
  
  <!-- dg -->
  <rect x="490" y="90" width="100" height="55" fill="#C2185B" rx="8" ry="8"/>
  <text x="540" y="125" font-family="Roboto, Arial, sans-serif" font-size="20" font-weight="500" text-anchor="middle" fill="white">dg</text>
  
  <!-- cg -->
  <rect x="605" y="90" width="100" height="55" fill="#C2185B" rx="8" ry="8"/>
  <text x="655" y="125" font-family="Roboto, Arial, sans-serif" font-size="20" font-weight="500" text-anchor="middle" fill="white">cg</text>
  
  <!-- mg -->
  <rect x="720" y="90" width="100" height="55" fill="#C2185B" rx="8" ry="8"/>
  <text x="770" y="125" font-family="Roboto, Arial, sans-serif" font-size="20" font-weight="500" text-anchor="middle" fill="white">mg</text>
  
  <!-- Lignes du tableau avec espacement -->
  <!-- Ligne 1 -->
  <g id="ligne1">
    <rect x="30" y="160" width="100" height="65" fill="#FFFFFF" rx="8" ry="8"/>
    <rect x="145" y="160" width="100" height="65" fill="#FFFFFF" rx="8" ry="8"/>
    <rect x="260" y="160" width="100" height="65" fill="#FFFFFF" rx="8" ry="8"/>
    <rect x="375" y="160" width="100" height="65" fill="#FFEBEE" rx="8" ry="8"/>
    <rect x="490" y="160" width="100" height="65" fill="#FFFFFF" rx="8" ry="8"/>
    <rect x="605" y="160" width="100" height="65" fill="#FFFFFF" rx="8" ry="8"/>
    <rect x="720" y="160" width="100" height="65" fill="#FFFFFF" rx="8" ry="8"/>
  </g>
  
  <!-- Ligne 2 -->
  <g id="ligne2">
    <rect x="30" y="240" width="100" height="65" fill="#FFFFFF" rx="8" ry="8"/>
    <rect x="145" y="240" width="100" height="65" fill="#FFFFFF" rx="8" ry="8"/>
    <rect x="260" y="240" width="100" height="65" fill="#FFFFFF" rx="8" ry="8"/>
    <rect x="375" y="240" width="100" height="65" fill="#FFEBEE" rx="8" ry="8"/>
    <rect x="490" y="240" width="100" height="65" fill="#FFFFFF" rx="8" ry="8"/>
    <rect x="605" y="240" width="100" height="65" fill="#FFFFFF" rx="8" ry="8"/>
    <rect x="720" y="240" width="100" height="65" fill="#FFFFFF" rx="8" ry="8"/>
  </g>
  
  <!-- Ligne 3 -->
  <g id="ligne3">
    <rect x="30" y="320" width="100" height="65" fill="#FFFFFF" rx="8" ry="8"/>
    <rect x="145" y="320" width="100" height="65" fill="#FFFFFF" rx="8" ry="8"/>
    <rect x="260" y="320" width="100" height="65" fill="#FFFFFF" rx="8" ry="8"/>
    <rect x="375" y="320" width="100" height="65" fill="#FFEBEE" rx="8" ry="8"/>
    <rect x="490" y="320" width="100" height="65" fill="#FFFFFF" rx="8" ry="8"/>
    <rect x="605" y="320" width="100" height="65" fill="#FFFFFF" rx="8" ry="8"/>
    <rect x="720" y="320" width="100" height="65" fill="#FFFFFF" rx="8" ry="8"/>
  </g>
  
  <!-- Légende -->
  <text x="425" y="415" font-family="Roboto, Arial, sans-serif" font-size="14" text-anchor="middle" fill="#757575">
    Multiples (×10) en bleu | Unité de référence (g) en rouge | Sous-multiples (÷10) en rose
  </text>
</svg>