<svg width="159" height="57" viewBox="0 0 159 57" fill="none" xmlns="http://www.w3.org/2000/svg">
<path d="M63.3779 43H50.6113V38.9492H63.3779V43ZM52.1885 43H47.1416V18.8281H52.1885V43ZM61.7012 32.541H50.6113V28.6064H61.7012V32.541ZM63.3281 22.8955H50.6113V18.8281H63.3281V22.8955ZM70.7988 43H65.9678V25.0371H70.5332L70.7988 29.0381V43ZM76.0781 29.5527C75.8346 29.5195 75.5469 29.4919 75.2148 29.4697C74.8939 29.4365 74.6061 29.4199 74.3516 29.4199C73.4661 29.4199 72.7357 29.5638 72.1602 29.8516C71.5846 30.1393 71.153 30.5544 70.8652 31.0967C70.5885 31.639 70.4391 32.3086 70.417 33.1055L69.4375 32.7734C69.4375 31.2129 69.6367 29.8294 70.0352 28.623C70.4336 27.4056 71.0202 26.4482 71.7949 25.751C72.5807 25.0537 73.5326 24.7051 74.6504 24.7051C74.9049 24.7051 75.1761 24.7272 75.4639 24.7715C75.7516 24.8047 75.9785 24.8545 76.1445 24.9209L76.0781 29.5527ZM88.9775 25.0371H93.8086V43H89.2764L88.9775 38.6836V25.0371ZM90.9697 34.9316C90.9697 36.5475 90.7262 37.9863 90.2393 39.248C89.7523 40.5098 89.0107 41.5059 88.0146 42.2363C87.0186 42.9668 85.7568 43.332 84.2295 43.332C82.4587 43.332 81.0199 42.8174 79.9131 41.7881C78.8174 40.7477 78.2695 39.0378 78.2695 36.6582V25.0371H83.1006V36.6914C83.1006 37.3444 83.2057 37.8757 83.416 38.2852C83.6374 38.6836 83.9362 38.9714 84.3125 39.1484C84.6999 39.3255 85.137 39.4141 85.624 39.4141C86.6201 39.4141 87.4004 39.2204 87.9648 38.833C88.5404 38.4456 88.9443 37.9144 89.1768 37.2393C89.4202 36.5641 89.542 35.806 89.542 34.9648L90.9697 34.9316ZM103.72 43.332C102.237 43.332 100.969 42.9391 99.918 42.1533C98.8776 41.3564 98.0807 40.2718 97.5273 38.8994C96.974 37.527 96.6973 35.972 96.6973 34.2344V33.8857C96.6973 32.0596 96.974 30.4603 97.5273 29.0879C98.0807 27.7044 98.8831 26.6309 99.9346 25.8672C100.986 25.0924 102.259 24.7051 103.753 24.7051C105.17 24.7051 106.354 25.1035 107.306 25.9004C108.257 26.6862 109.005 27.7653 109.547 29.1377C110.089 30.499 110.465 32.0485 110.676 33.7861V34.4502C110.465 36.1104 110.084 37.61 109.53 38.9492C108.988 40.2884 108.241 41.3564 107.289 42.1533C106.337 42.9391 105.147 43.332 103.72 43.332ZM104.948 39.4141C105.756 39.4141 106.42 39.2314 106.94 38.8662C107.472 38.501 107.876 37.9919 108.152 37.3389C108.44 36.6859 108.612 35.9388 108.667 35.0977V33.1553C108.634 32.4469 108.534 31.8161 108.368 31.2627C108.202 30.6982 107.97 30.2223 107.671 29.835C107.372 29.4476 106.996 29.1488 106.542 28.9385C106.099 28.7282 105.579 28.623 104.981 28.623C104.151 28.623 103.482 28.8555 102.973 29.3203C102.464 29.7852 102.093 30.416 101.86 31.2129C101.639 31.9987 101.528 32.8896 101.528 33.8857V34.2344C101.528 35.1973 101.639 36.0716 101.86 36.8574C102.082 37.6322 102.441 38.252 102.939 38.7168C103.438 39.1816 104.107 39.4141 104.948 39.4141ZM108.534 43L108.053 39.0488V17.5H112.9V43H108.534ZM119.325 17.8984C120.155 17.8984 120.814 18.1364 121.301 18.6123C121.788 19.0771 122.031 19.6748 122.031 20.4053C122.031 21.1136 121.788 21.7057 121.301 22.1816C120.814 22.6465 120.155 22.8789 119.325 22.8789C118.506 22.8789 117.853 22.6465 117.366 22.1816C116.879 21.7057 116.636 21.1136 116.636 20.4053C116.636 19.6748 116.879 19.0771 117.366 18.6123C117.853 18.1364 118.506 17.8984 119.325 17.8984ZM121.749 43H116.918V25.0371H121.749V43ZM140.044 43H126.447V39.1152H140.044V43ZM128.34 43H125.136V40.0615L136.524 25.0371H139.778V27.876L128.34 43ZM138.068 28.9219H125.385V25.0371H138.068V28.9219ZM157.376 43H143.779V39.1152H157.376V43ZM145.672 43H142.468V40.0615L153.856 25.0371H157.11V27.876L145.672 43ZM155.4 28.9219H142.717V25.0371H155.4V28.9219Z" fill="#CCC4E3"/>
<path d="M36.3705 6.24266C32.5149 2.38704 27.1907 0 21.3066 0C15.4225 0 10.0983 2.38704 6.24266 6.24266C2.38704 10.0983 0 15.4225 0 21.3066C0 33.0748 9.53835 42.6131 21.3017 42.6131H42.6082V21.3115C42.6082 15.4274 40.2261 10.1032 36.3656 6.24757L36.3705 6.24266ZM36.5719 36.5718H21.3066C12.8782 36.5718 6.04128 29.7398 6.04128 21.3066C6.04128 17.0924 7.75052 13.2761 10.5108 10.5108C13.2712 7.75052 17.0875 6.04128 21.3017 6.04128C25.5158 6.04128 29.3321 7.75052 32.0974 10.5108C34.8577 13.2712 36.5669 17.0875 36.5669 21.3066V36.5718H36.5719Z" fill="#5A4594"/>
<path d="M30.3685 12.3623C28.0502 10.044 24.8527 8.61475 21.3164 8.61475C17.78 8.61475 14.5826 10.0489 12.2643 12.3623C9.94601 14.6806 8.51673 17.878 8.51673 21.4144C8.51673 28.4822 14.2486 34.2141 21.3164 34.2141H34.116V21.4144C34.116 17.878 32.6819 14.6806 30.3685 12.3623ZM30.4864 30.5844H21.3164C16.2525 30.5844 12.1464 26.4783 12.1464 21.4144C12.1464 18.88 13.1729 16.5912 14.8331 14.9311C16.4932 13.271 18.7869 12.2444 21.3164 12.2444C23.8508 12.2444 26.1396 13.271 27.7997 14.9311C29.4598 16.5912 30.4864 18.8849 30.4864 21.4144V30.5844Z" fill="#EF8218"/>
<path d="M35.2064 44.6167H55.3981C55.3981 47.5882 52.9865 49.9998 50.0149 49.9998H29.8233C29.8233 47.0283 32.2349 44.6167 35.2064 44.6167Z" fill="#5A4594"/>
</svg>
