<svg width="157" height="57" viewBox="0 0 157 57" fill="none" xmlns="http://www.w3.org/2000/svg">
<path d="M61.3779 43H48.6113V38.9492H61.3779V43ZM50.1885 43H45.1416V18.8281H50.1885V43ZM59.7012 32.541H48.6113V28.6064H59.7012V32.541ZM61.3281 22.8955H48.6113V18.8281H61.3281V22.8955ZM68.7988 43H63.9678V25.0371H68.5332L68.7988 29.0381V43ZM74.0781 29.5527C73.8346 29.5195 73.5469 29.4919 73.2148 29.4697C72.8939 29.4365 72.6061 29.4199 72.3516 29.4199C71.4661 29.4199 70.7357 29.5638 70.1602 29.8516C69.5846 30.1393 69.153 30.5544 68.8652 31.0967C68.5885 31.639 68.4391 32.3086 68.417 33.1055L67.4375 32.7734C67.4375 31.2129 67.6367 29.8294 68.0352 28.623C68.4336 27.4056 69.0202 26.4482 69.7949 25.751C70.5807 25.0537 71.5326 24.7051 72.6504 24.7051C72.9049 24.7051 73.1761 24.7272 73.4639 24.7715C73.7516 24.8047 73.9785 24.8545 74.1445 24.9209L74.0781 29.5527ZM86.9775 25.0371H91.8086V43H87.2764L86.9775 38.6836V25.0371ZM88.9697 34.9316C88.9697 36.5475 88.7262 37.9863 88.2393 39.248C87.7523 40.5098 87.0107 41.5059 86.0146 42.2363C85.0186 42.9668 83.7568 43.332 82.2295 43.332C80.4587 43.332 79.0199 42.8174 77.9131 41.7881C76.8174 40.7477 76.2695 39.0378 76.2695 36.6582V25.0371H81.1006V36.6914C81.1006 37.3444 81.2057 37.8757 81.416 38.2852C81.6374 38.6836 81.9362 38.9714 82.3125 39.1484C82.6999 39.3255 83.137 39.4141 83.624 39.4141C84.6201 39.4141 85.4004 39.2204 85.9648 38.833C86.5404 38.4456 86.9443 37.9144 87.1768 37.2393C87.4202 36.5641 87.542 35.806 87.542 34.9648L88.9697 34.9316ZM101.72 43.332C100.237 43.332 98.9694 42.9391 97.918 42.1533C96.8776 41.3564 96.0807 40.2718 95.5273 38.8994C94.974 37.527 94.6973 35.972 94.6973 34.2344V33.8857C94.6973 32.0596 94.974 30.4603 95.5273 29.0879C96.0807 27.7044 96.8831 26.6309 97.9346 25.8672C98.986 25.0924 100.259 24.7051 101.753 24.7051C103.17 24.7051 104.354 25.1035 105.306 25.9004C106.257 26.6862 107.005 27.7653 107.547 29.1377C108.089 30.499 108.465 32.0485 108.676 33.7861V34.4502C108.465 36.1104 108.084 37.61 107.53 38.9492C106.988 40.2884 106.241 41.3564 105.289 42.1533C104.337 42.9391 103.147 43.332 101.72 43.332ZM102.948 39.4141C103.756 39.4141 104.42 39.2314 104.94 38.8662C105.472 38.501 105.876 37.9919 106.152 37.3389C106.44 36.6859 106.612 35.9388 106.667 35.0977V33.1553C106.634 32.4469 106.534 31.8161 106.368 31.2627C106.202 30.6982 105.97 30.2223 105.671 29.835C105.372 29.4476 104.996 29.1488 104.542 28.9385C104.099 28.7282 103.579 28.623 102.981 28.623C102.151 28.623 101.482 28.8555 100.973 29.3203C100.464 29.7852 100.093 30.416 99.8604 31.2129C99.639 31.9987 99.5283 32.8896 99.5283 33.8857V34.2344C99.5283 35.1973 99.639 36.0716 99.8604 36.8574C100.082 37.6322 100.441 38.252 100.939 38.7168C101.438 39.1816 102.107 39.4141 102.948 39.4141ZM106.534 43L106.053 39.0488V17.5H110.9V43H106.534ZM117.325 17.8984C118.155 17.8984 118.814 18.1364 119.301 18.6123C119.788 19.0771 120.031 19.6748 120.031 20.4053C120.031 21.1136 119.788 21.7057 119.301 22.1816C118.814 22.6465 118.155 22.8789 117.325 22.8789C116.506 22.8789 115.853 22.6465 115.366 22.1816C114.879 21.7057 114.636 21.1136 114.636 20.4053C114.636 19.6748 114.879 19.0771 115.366 18.6123C115.853 18.1364 116.506 17.8984 117.325 17.8984ZM119.749 43H114.918V25.0371H119.749V43ZM138.044 43H124.447V39.1152H138.044V43ZM126.34 43H123.136V40.0615L134.524 25.0371H137.778V27.876L126.34 43ZM136.068 28.9219H123.385V25.0371H136.068V28.9219ZM155.376 43H141.779V39.1152H155.376V43ZM143.672 43H140.468V40.0615L151.856 25.0371H155.11V27.876L143.672 43ZM153.4 28.9219H140.717V25.0371H153.4V28.9219Z" fill="#CCC4E3"/>
<path d="M36.3705 6.24266C32.5149 2.38704 27.1907 0 21.3066 0C15.4225 0 10.0983 2.38704 6.24266 6.24266C2.38704 10.0983 0 15.4225 0 21.3066C0 33.0748 9.53835 42.6131 21.3017 42.6131H42.6082V21.3115C42.6082 15.4274 40.2261 10.1032 36.3656 6.24757L36.3705 6.24266ZM36.5719 36.5718H21.3066C12.8782 36.5718 6.04128 29.7398 6.04128 21.3066C6.04128 17.0924 7.75052 13.2761 10.5108 10.5108C13.2712 7.75052 17.0875 6.04128 21.3017 6.04128C25.5158 6.04128 29.3321 7.75052 32.0974 10.5108C34.8577 13.2712 36.5669 17.0875 36.5669 21.3066V36.5718H36.5719Z" fill="#5A4594"/>
<path d="M30.3685 12.3623C28.0502 10.044 24.8527 8.61475 21.3164 8.61475C17.78 8.61475 14.5826 10.0489 12.2643 12.3623C9.94601 14.6806 8.51673 17.878 8.51673 21.4144C8.51673 28.4822 14.2486 34.2141 21.3164 34.2141H34.116V21.4144C34.116 17.878 32.6819 14.6806 30.3685 12.3623ZM30.4864 30.5844H21.3164C16.2525 30.5844 12.1464 26.4783 12.1464 21.4144C12.1464 18.88 13.1729 16.5912 14.8331 14.9311C16.4932 13.271 18.7869 12.2444 21.3164 12.2444C23.8508 12.2444 26.1396 13.271 27.7997 14.9311C29.4598 16.5912 30.4864 18.8849 30.4864 21.4144V30.5844Z" fill="#EF8218"/>
<path d="M35.2064 44.6167H55.3981C55.3981 47.5882 52.9865 49.9998 50.0149 49.9998H29.8233C29.8233 47.0283 32.2349 44.6167 35.2064 44.6167Z" fill="#5A4594"/>
</svg>
