<svg width="56" height="50" viewBox="0 0 56 50" fill="none" xmlns="http://www.w3.org/2000/svg">
<path d="M36.3705 6.24266C32.5149 2.38704 27.1907 0 21.3066 0C15.4225 0 10.0983 2.38704 6.24266 6.24266C2.38704 10.0983 0 15.4225 0 21.3066C0 33.0748 9.53835 42.6131 21.3017 42.6131H42.6082V21.3115C42.6082 15.4274 40.2261 10.1032 36.3656 6.24757L36.3705 6.24266ZM36.5719 36.5718H21.3066C12.8782 36.5718 6.04128 29.7398 6.04128 21.3066C6.04128 17.0924 7.75052 13.2761 10.5108 10.5108C13.2712 7.75052 17.0875 6.04128 21.3017 6.04128C25.5158 6.04128 29.3321 7.75052 32.0974 10.5108C34.8577 13.2712 36.5669 17.0875 36.5669 21.3066V36.5718H36.5719Z" fill="#5A4594"/>
<path d="M30.3685 12.3623C28.0502 10.044 24.8527 8.61475 21.3164 8.61475C17.78 8.61475 14.5826 10.0489 12.2643 12.3623C9.94601 14.6806 8.51673 17.878 8.51673 21.4144C8.51673 28.4822 14.2486 34.2141 21.3164 34.2141H34.116V21.4144C34.116 17.878 32.6819 14.6806 30.3685 12.3623ZM30.4864 30.5844H21.3164C16.2525 30.5844 12.1464 26.4783 12.1464 21.4144C12.1464 18.88 13.1729 16.5912 14.8331 14.9311C16.4932 13.271 18.7869 12.2444 21.3164 12.2444C23.8508 12.2444 26.1396 13.271 27.7997 14.9311C29.4598 16.5912 30.4864 18.8849 30.4864 21.4144V30.5844Z" fill="#EF8218"/>
<path d="M35.2064 44.6167H55.3981C55.3981 47.5882 52.9865 49.9998 50.0149 49.9998H29.8233C29.8233 47.0283 32.2349 44.6167 35.2064 44.6167Z" fill="#5A4594"/>
</svg>
