<svg width="414" height="375" viewBox="0 0 414 375" fill="none" xmlns="http://www.w3.org/2000/svg">
<rect width="181" height="83" rx="5" fill="#4E80EE"/>
<path d="M409 0C411.761 0 414 2.23858 414 5V78C414 80.7614 411.761 83 409 83H224C221.239 83 219 80.7614 219 78V5C219 2.23858 221.239 3.52328e-08 224 0H409ZM350.055 12.2021C348.452 10.5999 345.854 10.5999 344.252 12.2021L305.771 50.6816L287.807 32.7168C286.204 31.1144 283.606 31.1144 282.004 32.7168L276.202 38.5186C274.6 40.1209 274.6 42.7191 276.202 44.3213L302.871 70.9902C304.473 72.5924 307.071 72.5923 308.673 70.9902L355.856 23.8066C357.459 22.2043 357.459 19.6061 355.856 18.0039L350.055 12.2021Z" fill="#4E80EE"/>
<rect y="117" width="181" height="83" rx="5" fill="#4E80EE"/>
<rect x="219" y="117" width="195" height="83" rx="5" fill="#4E80EE"/>
<path d="M5.5293 347V262.636H66.3304V281.091H28.4327V295.591H63.1998V314.045H28.4327V328.545H66.1657V347H5.5293ZM78.019 347V334.312L117.894 281.091H78.1838V262.636H147.059V275.324L107.184 328.545H146.894V347H78.019ZM216.109 262.636H238.683V320.472C238.655 325.964 237.268 330.797 234.522 334.972C231.803 339.118 228.041 342.359 223.235 344.693C218.457 347 212.951 348.153 206.717 348.153C201.307 348.153 196.364 347.22 191.887 345.352C187.411 343.457 183.841 340.491 181.177 336.455C178.513 332.39 177.195 327.117 177.222 320.636H200.126C200.208 322.751 200.565 324.536 201.197 325.991C201.856 327.447 202.762 328.545 203.916 329.287C205.097 330.001 206.525 330.358 208.2 330.358C209.902 330.358 211.33 329.987 212.484 329.246C213.665 328.504 214.557 327.406 215.161 325.95C215.766 324.467 216.081 322.641 216.109 320.472V262.636ZM331.264 304.818C331.264 314.21 329.438 322.133 325.786 328.587C322.133 335.013 317.204 339.887 310.997 343.21C304.791 346.506 297.87 348.153 290.236 348.153C282.547 348.153 275.599 346.492 269.392 343.169C263.213 339.819 258.298 334.93 254.645 328.504C251.02 322.051 249.208 314.155 249.208 304.818C249.208 295.426 251.02 287.517 254.645 281.091C258.298 274.637 263.213 269.763 269.392 266.467C275.599 263.144 282.547 261.483 290.236 261.483C297.87 261.483 304.791 263.144 310.997 266.467C317.204 269.763 322.133 274.637 325.786 281.091C329.438 287.517 331.264 295.426 331.264 304.818ZM307.702 304.818C307.702 299.765 307.029 295.509 305.683 292.048C304.365 288.561 302.402 285.924 299.793 284.139C297.211 282.327 294.026 281.42 290.236 281.42C286.446 281.42 283.247 282.327 280.638 284.139C278.057 285.924 276.093 288.561 274.747 292.048C273.429 295.509 272.77 299.765 272.77 304.818C272.77 309.871 273.429 314.142 274.747 317.629C276.093 321.089 278.057 323.726 280.638 325.538C283.247 327.323 286.446 328.216 290.236 328.216C294.026 328.216 297.211 327.323 299.793 325.538C302.402 323.726 304.365 321.089 305.683 317.629C307.029 314.142 307.702 309.871 307.702 304.818ZM341.861 347V262.636H378.441C384.867 262.636 390.263 263.501 394.63 265.232C399.024 266.962 402.333 269.406 404.557 272.564C406.809 275.722 407.935 279.443 407.935 283.727C407.935 286.83 407.249 289.659 405.876 292.213C404.53 294.767 402.635 296.909 400.191 298.639C397.747 300.342 394.891 301.523 391.623 302.182V303.006C395.248 303.143 398.543 304.063 401.509 305.766C404.475 307.441 406.837 309.761 408.594 312.727C410.352 315.666 411.231 319.126 411.231 323.108C411.231 327.722 410.022 331.827 407.606 335.425C405.216 339.022 401.811 341.851 397.39 343.911C392.968 345.97 387.696 347 381.572 347H341.861ZM364.765 328.71H375.475C379.32 328.71 382.203 327.996 384.126 326.568C386.048 325.113 387.009 322.971 387.009 320.142C387.009 318.165 386.556 316.49 385.65 315.116C384.743 313.743 383.453 312.7 381.778 311.986C380.13 311.272 378.139 310.915 375.805 310.915H364.765V328.71ZM364.765 296.744H374.157C376.162 296.744 377.933 296.429 379.471 295.797C381.009 295.165 382.203 294.259 383.055 293.078C383.933 291.87 384.373 290.401 384.373 288.67C384.373 286.062 383.439 284.071 381.572 282.697C379.704 281.297 377.342 280.597 374.486 280.597H364.765V296.744Z" fill="white"/>
</svg>
